<svg viewBox="0 0 1200 840" xmlns="http://www.w3.org/2000/svg"
     role="img" aria-label="Trail: Why Knowledge Should Compile, Not Just Search — RAG searches and forgets; Trail compiles and remembers">

  <defs>
    <pattern id="g20" width="20" height="20" patternUnits="userSpaceOnUse">
      <path d="M20,0 L0,0 L0,20" fill="none" stroke="currentColor" stroke-width="0.4" stroke-opacity="0.05"/>
    </pattern>
  </defs>
  <rect width="1200" height="840" fill="url(#g20)"/>

  <!-- registration marks -->
  <g stroke="currentColor" stroke-opacity="0.22" stroke-width="1" fill="none">
    <path d="M12,28 L12,12 L28,12"/>
    <path d="M1172,12 L1188,12 L1188,28"/>
    <path d="M12,812 L12,828 L28,828"/>
    <path d="M1172,828 L1188,828 L1188,812"/>
  </g>

  <!-- punch-card header -->
  <g fill="none" stroke="currentColor" stroke-width="0.9" opacity="0.65">
    <polyline points="22,64 48,22 1178,22 1178,64 22,64 22,52"/>
  </g>
  <g fill="currentColor" opacity="0.5">
    <rect x="80"  y="36" width="10" height="15"/>
    <rect x="110" y="36" width="10" height="15"/>
    <rect x="140" y="36" width="10" height="15"/>
    <rect x="170" y="36" width="10" height="15"/>
    <rect x="200" y="36" width="10" height="15"/>
    <rect x="230" y="36" width="10" height="15"/>
    <rect x="260" y="36" width="10" height="15"/>
    <rect x="290" y="36" width="10" height="15"/>
    <rect x="320" y="36" width="10" height="15"/>
    <rect x="350" y="36" width="10" height="15"/>
    <rect x="380" y="36" width="10" height="15"/>
    <rect x="410" y="36" width="10" height="15"/>
  </g>
  <text x="1160" y="51" font-family="monospace" font-size="10" fill="currentColor" text-anchor="end" opacity="0.65" letter-spacing="1">TRAIL · COMPILE-TIME ADVANTAGE</text>

  <!-- main title -->
  <text x="600" y="90" font-family="monospace" font-size="13" fill="currentColor" text-anchor="middle" letter-spacing="2" font-weight="bold" opacity="0.9">TRAIL: WHY KNOWLEDGE SHOULD COMPILE, NOT JUST SEARCH</text>

  <!-- ═══════════════════════════════════════════════════════════════ -->
  <!-- LEFT PANEL — TRADITIONAL RAG (x=27, y=100, 566×400)          -->
  <!-- ═══════════════════════════════════════════════════════════════ -->
  <g transform="translate(27,100)">
    <rect width="566" height="400" fill="none" stroke="currentColor" stroke-width="1.8"/>
    <rect x="3" y="3" width="560" height="394" fill="none" stroke="currentColor" stroke-width="0.5" opacity="0.15"/>
    <!-- header -->
    <line x1="0" y1="42" x2="566" y2="42" stroke="currentColor" stroke-width="0.8" opacity="0.4"/>
    <text x="14" y="18" font-family="monospace" font-size="12" fill="currentColor" letter-spacing="0.5" opacity="0.85" font-weight="bold">TRADITIONAL RAG</text>
    <text x="14" y="32" font-family="monospace" font-size="10" fill="currentColor" opacity="0.55" letter-spacing="0.5">SEARCH &amp; FORGET</text>
    <!-- query-time badge -->
    <rect x="398" y="10" width="154" height="24" fill="none" stroke="currentColor" stroke-width="1" opacity="0.55"/>
    <text x="475" y="26" font-family="monospace" font-size="9" fill="currentColor" text-anchor="middle" opacity="0.7" letter-spacing="0.5">WORK: QUERY-TIME</text>

    <!-- ── ICON ZONE (y=46-282) ── -->

    <!-- LEFT CLUSTER: Scattered fragmented docs (x=14-260) -->
    <!-- 6 isolated doc rects — NO connections -->
    <g fill="none" stroke="currentColor" stroke-width="1">
      <!-- doc 1 -->
      <rect x="20" y="58" width="28" height="36"/>
      <line x1="24" y1="68" x2="44" y2="68" stroke-opacity="0.35" stroke-width="0.8"/>
      <line x1="24" y1="74" x2="42" y2="74" stroke-opacity="0.35" stroke-width="0.8"/>
      <line x1="24" y1="80" x2="43" y2="80" stroke-opacity="0.35" stroke-width="0.8"/>
      <!-- doc 2 -->
      <rect x="58" y="52" width="28" height="36"/>
      <line x1="62" y1="62" x2="82" y2="62" stroke-opacity="0.35" stroke-width="0.8"/>
      <line x1="62" y1="68" x2="80" y2="68" stroke-opacity="0.35" stroke-width="0.8"/>
      <line x1="62" y1="74" x2="81" y2="74" stroke-opacity="0.35" stroke-width="0.8"/>
      <!-- doc 3 -->
      <rect x="36" y="102" width="28" height="36"/>
      <line x1="40" y1="112" x2="60" y2="112" stroke-opacity="0.35" stroke-width="0.8"/>
      <line x1="40" y1="118" x2="58" y2="118" stroke-opacity="0.35" stroke-width="0.8"/>
      <line x1="40" y1="124" x2="60" y2="124" stroke-opacity="0.35" stroke-width="0.8"/>
      <!-- doc 4 -->
      <rect x="70" y="96" width="28" height="36"/>
      <line x1="74" y1="106" x2="94" y2="106" stroke-opacity="0.35" stroke-width="0.8"/>
      <line x1="74" y1="112" x2="92" y2="112" stroke-opacity="0.35" stroke-width="0.8"/>
      <line x1="74" y1="118" x2="93" y2="118" stroke-opacity="0.35" stroke-width="0.8"/>
      <!-- doc 5 -->
      <rect x="18" y="148" width="28" height="36"/>
      <line x1="22" y1="158" x2="42" y2="158" stroke-opacity="0.35" stroke-width="0.8"/>
      <line x1="22" y1="164" x2="40" y2="164" stroke-opacity="0.35" stroke-width="0.8"/>
      <line x1="22" y1="170" x2="41" y2="170" stroke-opacity="0.35" stroke-width="0.8"/>
      <!-- doc 6 -->
      <rect x="60" y="142" width="28" height="36"/>
      <line x1="64" y1="152" x2="84" y2="152" stroke-opacity="0.35" stroke-width="0.8"/>
      <line x1="64" y1="158" x2="82" y2="158" stroke-opacity="0.35" stroke-width="0.8"/>
      <line x1="64" y1="164" x2="83" y2="164" stroke-opacity="0.35" stroke-width="0.8"/>
    </g>
    <!-- "no connections" annotation -->
    <text x="55" y="204" font-family="monospace" font-size="8" fill="currentColor" text-anchor="middle" opacity="0.5">VECTOR CHUNKS</text>
    <text x="55" y="218" font-family="monospace" font-size="8" fill="currentColor" text-anchor="middle" opacity="0.38">no connections</text>

    <!-- ROBOT + MAGNIFYING GLASS (x=130-260) -->
    <!-- robot head (small) -->
    <g transform="translate(148,58)">
      <rect x="2" y="8" width="38" height="30" fill="none" stroke="currentColor" stroke-width="1.1" rx="1"/>
      <circle cx="14" cy="20" r="4" fill="none" stroke="currentColor" stroke-width="1"/>
      <circle cx="27" cy="20" r="4" fill="none" stroke="currentColor" stroke-width="1"/>
      <circle cx="14" cy="20" r="1.5" fill="currentColor"/>
      <circle cx="27" cy="20" r="1.5" fill="currentColor"/>
      <rect x="10" y="29" width="22" height="5" fill="none" stroke="currentColor" stroke-width="1"/>
      <line x1="21" y1="8" x2="21" y2="2" stroke="currentColor" stroke-width="1.1"/>
      <circle cx="21" cy="0" r="2" fill="currentColor"/>
      <rect x="0" y="18" width="3" height="7" fill="none" stroke="currentColor" stroke-width="1"/>
      <rect x="39" y="18" width="3" height="7" fill="none" stroke="currentColor" stroke-width="1"/>
      <text x="21" y="56" font-family="monospace" font-size="8" fill="currentColor" text-anchor="middle" opacity="0.6">AI</text>
    </g>

    <!-- magnifying glass -->
    <circle cx="181" cy="148" r="26" fill="none" stroke="currentColor" stroke-width="1.4"/>
    <line x1="201" y1="168" x2="220" y2="187" stroke="currentColor" stroke-width="3" stroke-linecap="round"/>
    <!-- question mark inside lens -->
    <text x="181" y="153" font-family="monospace" font-size="16" fill="currentColor" text-anchor="middle" opacity="0.45">?</text>
    <text x="181" y="192" font-family="monospace" font-size="8" fill="currentColor" text-anchor="middle" opacity="0.6">AI SEARCH</text>

    <!-- "query → retrieve → forget" cycle annotation -->
    <text x="168" y="216" font-family="monospace" font-size="8" fill="currentColor" text-anchor="middle" opacity="0.45">retrieves → forgets</text>

    <!-- RIGHT CLUSTER: Fragile Vector Index tower (x=285-552) -->
    <text x="418" y="58" font-family="monospace" font-size="8.5" fill="currentColor" text-anchor="middle" opacity="0.65">FRAGILE VECTOR INDEX</text>
    <!-- tower of blocks, irregular widths + offsets -->
    <g fill="none" stroke="currentColor" stroke-width="1.2">
      <rect x="368" y="226" width="104" height="24"/>
      <rect x="380" y="200" width="80" height="24"/>
      <rect x="360" y="174" width="116" height="24"/>
      <rect x="388" y="148" width="64" height="24"/>
      <rect x="372" y="122" width="90" height="24"/>
      <rect x="394" y="96" width="50" height="24"/>
    </g>
    <!-- "unstable" indicator: muted red dot at top -->
    <circle cx="419" cy="90" r="5" fill="none" stroke="#C23B22" stroke-width="1.2" opacity="0.6"/>
    <line x1="419" y1="86" x2="419" y2="88" stroke="#C23B22" stroke-width="1.4" opacity="0.6"/>
    <circle cx="419" cy="90.5" r="1" fill="#C23B22" opacity="0.6"/>
    <text x="418" y="270" font-family="monospace" font-size="8" fill="currentColor" text-anchor="middle" opacity="0.45">no meaningful links</text>

    <!-- ── GRAPH ZONE (y=285-396) ── -->
    <line x1="14" y1="285" x2="552" y2="285" stroke="currentColor" stroke-width="0.6" stroke-dasharray="2,3" opacity="0.28"/>
    <!-- graph label -->
    <text x="283" y="300" font-family="monospace" font-size="8.5" fill="currentColor" text-anchor="middle" opacity="0.55" letter-spacing="0.5">SEARCH ACCURACY DEGRADES AS DATA GROWS</text>
    <!-- axes -->
    <line x1="34" y1="310" x2="34" y2="390" stroke="currentColor" stroke-width="1" opacity="0.5"/>
    <line x1="34" y1="390" x2="540" y2="390" stroke="currentColor" stroke-width="1" opacity="0.5"/>
    <polygon points="34,308 30,316 38,316" fill="currentColor" opacity="0.5"/>
    <polygon points="542,390 534,386 534,394" fill="currentColor" opacity="0.5"/>
    <text x="20" y="350" font-family="monospace" font-size="7.5" fill="currentColor" text-anchor="middle" opacity="0.45" transform="rotate(-90,20,350)">SCALE</text>
    <text x="288" y="398" font-family="monospace" font-size="7.5" fill="currentColor" text-anchor="middle" opacity="0.45">DATA VOLUME</text>
    <!-- downward curve (RAG degrades) -->
    <path d="M 36,312 C 100,328 380,368 538,388" fill="none" stroke="currentColor" stroke-width="1.6" opacity="0.6"/>
    <path d="M 36,312 C 100,328 380,368 538,388 L 538,390 L 36,390 Z" fill="currentColor" fill-opacity="0.04"/>
    <text x="494" y="380" font-family="monospace" font-size="7.5" fill="currentColor" opacity="0.45" text-anchor="end">DEGRADES ↘</text>
  </g>

  <!-- vertical divider -->
  <line x1="600" y1="100" x2="600" y2="500" stroke="currentColor" stroke-width="0.8" opacity="0.35" stroke-dasharray="4,4"/>

  <!-- ═══════════════════════════════════════════════════════════════ -->
  <!-- RIGHT PANEL — TRAIL (x=607, y=100, 566×400)                  -->
  <!-- ═══════════════════════════════════════════════════════════════ -->
  <g transform="translate(607,100)">
    <rect width="566" height="400" fill="none" stroke="#e8a87c" stroke-width="1.8"/>
    <rect x="3" y="3" width="560" height="394" fill="none" stroke="#e8a87c" stroke-width="0.5" opacity="0.22"/>
    <!-- header -->
    <line x1="0" y1="42" x2="566" y2="42" stroke="currentColor" stroke-width="0.8" opacity="0.4"/>
    <text x="14" y="18" font-family="monospace" font-size="12" fill="#e8a87c" letter-spacing="0.5" font-weight="bold">TRAIL</text>
    <text x="14" y="32" font-family="monospace" font-size="10" fill="currentColor" opacity="0.55" letter-spacing="0.5">COMPILE &amp; REMEMBER</text>
    <!-- ingest-time badge (amber) -->
    <rect x="390" y="10" width="162" height="24" fill="none" stroke="#e8a87c" stroke-width="1" opacity="0.7"/>
    <text x="471" y="26" font-family="monospace" font-size="9" fill="#e8a87c" text-anchor="middle" letter-spacing="0.5">WORK: INGEST-TIME</text>

    <!-- ── ICON ZONE (y=46-282) ── -->

    <!-- LEFT CLUSTER: Connected Neurons (x=14-270) -->
    <!-- amber connecting lines first (below nodes) -->
    <g stroke="#e8a87c" stroke-width="1.4" opacity="0.75">
      <line x1="90" y1="150" x2="176" y2="118"/>
      <line x1="90" y1="150" x2="172" y2="192"/>
      <line x1="176" y1="118" x2="172" y2="192"/>
    </g>
    <!-- main neuron hexagon (amber, r=28) -->
    <polygon points="90,122 114,136 114,164 90,178 66,164 66,136" fill="none" stroke="#e8a87c" stroke-width="1.8"/>
    <polygon points="90,122 114,136 114,164 90,178 66,164 66,136" fill="#e8a87c" fill-opacity="0.07"/>
    <polygon points="90,118 118,134 118,166 90,182 62,166 62,134" fill="none" stroke="#e8a87c" stroke-width="0.5" opacity="0.3"/>
    <circle cx="90" cy="150" r="5" fill="#e8a87c"/>
    <text x="90" y="155" font-family="monospace" font-size="6" fill="#e8a87c" text-anchor="middle" dy="-2" opacity="0.0">N</text>
    <!-- neuron 2 (r=22) -->
    <polygon points="176,96 195,107 195,129 176,140 157,129 157,107" fill="none" stroke="currentColor" stroke-width="1.4"/>
    <circle cx="176" cy="118" r="3.5" fill="#e8a87c"/>
    <!-- neuron 3 (r=22) -->
    <polygon points="172,170 191,181 191,203 172,214 153,203 153,181" fill="none" stroke="currentColor" stroke-width="1.4"/>
    <circle cx="172" cy="192" r="3.5" fill="#e8a87c"/>

    <!-- halo ring on main neuron -->
    <polygon points="90,116 120,133 120,167 90,184 60,167 60,133" fill="none" stroke="#e8a87c" stroke-width="0.3" opacity="0.2"/>

    <!-- labels -->
    <text x="90" y="200" font-family="monospace" font-size="8.5" fill="#e8a87c" text-anchor="middle">NEURONS</text>
    <text x="90" y="214" font-family="monospace" font-size="8" fill="currentColor" text-anchor="middle" opacity="0.5">bidirectionally linked</text>
    <text x="176" y="154" font-family="monospace" font-size="7" fill="currentColor" text-anchor="middle" opacity="0.55">N</text>
    <text x="172" y="228" font-family="monospace" font-size="7" fill="currentColor" text-anchor="middle" opacity="0.55">N</text>

    <!-- "COMPOUNDED KNOWLEDGE" label -->
    <text x="128" y="246" font-family="monospace" font-size="8.5" fill="currentColor" text-anchor="middle" opacity="0.6">COMPOUNDED KNOWLEDGE</text>
    <text x="128" y="260" font-family="monospace" font-size="8" fill="currentColor" text-anchor="middle" opacity="0.4">grows with every ingest</text>

    <!-- RIGHT CLUSTER: Curator + Queue + Linting (x=285-552) -->

    <!-- Nightly dreaming / brain (top-right) -->
    <circle cx="480" cy="98" r="28" fill="none" stroke="currentColor" stroke-width="1.3"/>
    <circle cx="466" cy="90" r="2.5" fill="currentColor" opacity="0.6"/>
    <circle cx="482" cy="84" r="2.5" fill="currentColor" opacity="0.6"/>
    <circle cx="494" cy="94" r="2.5" fill="currentColor" opacity="0.6"/>
    <circle cx="472" cy="104" r="2.5" fill="currentColor" opacity="0.6"/>
    <circle cx="488" cy="110" r="2.5" fill="currentColor" opacity="0.6"/>
    <line x1="466" y1="90" x2="482" y2="84" stroke="currentColor" stroke-width="0.8" opacity="0.45"/>
    <line x1="482" y1="84" x2="494" y2="94" stroke="currentColor" stroke-width="0.8" opacity="0.45"/>
    <line x1="466" y1="90" x2="472" y2="104" stroke="currentColor" stroke-width="0.8" opacity="0.45"/>
    <line x1="482" y1="84" x2="488" y2="110" stroke="currentColor" stroke-width="0.8" opacity="0.45"/>
    <line x1="494" y1="94" x2="488" y2="110" stroke="currentColor" stroke-width="0.8" opacity="0.45"/>
    <!-- Z z indicators -->
    <text x="510" y="78" font-family="monospace" font-size="11" fill="#e8a87c" opacity="0.8">Z</text>
    <text x="524" y="68" font-family="monospace" font-size="8" fill="#e8a87c" opacity="0.6">z</text>
    <text x="534" y="60" font-family="monospace" font-size="6" fill="#e8a87c" opacity="0.4">z</text>
    <text x="480" y="144" font-family="monospace" font-size="7.5" fill="currentColor" text-anchor="middle" opacity="0.6">NIGHTLY LINTING</text>
    <text x="480" y="156" font-family="monospace" font-size="7" fill="currentColor" text-anchor="middle" opacity="0.42">scans for contradictions</text>

    <!-- Curator figure -->
    <circle cx="396" cy="94" r="10" fill="none" stroke="currentColor" stroke-width="1.3"/>
    <line x1="396" y1="104" x2="396" y2="136" stroke="currentColor" stroke-width="1.4"/>
    <line x1="378" y1="116" x2="414" y2="116" stroke="currentColor" stroke-width="1.4"/>
    <line x1="396" y1="136" x2="384" y2="156" stroke="currentColor" stroke-width="1.4"/>
    <line x1="396" y1="136" x2="408" y2="156" stroke="currentColor" stroke-width="1.4"/>
    <!-- pen -->
    <line x1="414" y1="116" x2="428" y2="104" stroke="#e8a87c" stroke-width="1.4"/>
    <polygon points="428,104 424,99 430,101" fill="#e8a87c"/>
    <text x="396" y="172" font-family="monospace" font-size="7.5" fill="currentColor" text-anchor="middle" opacity="0.6">CURATOR</text>

    <!-- Curation Queue box -->
    <rect x="336" y="188" width="160" height="68" fill="none" stroke="currentColor" stroke-width="1.2"/>
    <rect x="332" y="184" width="168" height="76" fill="none" stroke="#e8a87c" stroke-width="0.4" opacity="0.3"/>
    <line x1="336" y1="202" x2="496" y2="202" stroke="currentColor" stroke-width="0.8" opacity="0.4"/>
    <text x="416" y="199" font-family="monospace" font-size="7.5" fill="currentColor" text-anchor="middle" opacity="0.7" letter-spacing="0.5">CURATION QUEUE</text>
    <line x1="350" y1="214" x2="478" y2="214" stroke="currentColor" stroke-opacity="0.28" stroke-width="0.8"/>
    <line x1="350" y1="224" x2="470" y2="224" stroke="currentColor" stroke-opacity="0.28" stroke-width="0.8"/>
    <line x1="350" y1="234" x2="474" y2="234" stroke="currentColor" stroke-opacity="0.28" stroke-width="0.8"/>
    <!-- green check on queue -->
    <polyline points="478,210 484,220 494,202" fill="none" stroke="#4a9866" stroke-width="1.6" opacity="0.8"/>
    <text x="416" y="270" font-family="monospace" font-size="7.5" fill="currentColor" text-anchor="middle" opacity="0.5">human ensures accuracy</text>

    <!-- ── GRAPH ZONE (y=285-396) ── -->
    <line x1="14" y1="285" x2="552" y2="285" stroke="currentColor" stroke-width="0.6" stroke-dasharray="2,3" opacity="0.28"/>
    <text x="283" y="300" font-family="monospace" font-size="8.5" fill="#e8a87c" text-anchor="middle" opacity="0.9" letter-spacing="0.5">BECOMES SUPERLINEARLY SMARTER AS IT GROWS</text>
    <!-- axes -->
    <line x1="34" y1="310" x2="34" y2="390" stroke="currentColor" stroke-width="1" opacity="0.5"/>
    <line x1="34" y1="390" x2="540" y2="390" stroke="currentColor" stroke-width="1" opacity="0.5"/>
    <polygon points="34,308 30,316 38,316" fill="currentColor" opacity="0.5"/>
    <polygon points="542,390 534,386 534,394" fill="currentColor" opacity="0.5"/>
    <text x="20" y="350" font-family="monospace" font-size="7.5" fill="currentColor" text-anchor="middle" opacity="0.45" transform="rotate(-90,20,350)">SCALE</text>
    <text x="288" y="398" font-family="monospace" font-size="7.5" fill="currentColor" text-anchor="middle" opacity="0.45">DATA VOLUME</text>
    <!-- upward amber curve (Trail compounds) -->
    <path d="M 36,388 C 100,375 340,330 538,312" fill="none" stroke="#e8a87c" stroke-width="1.8"/>
    <path d="M 36,388 C 100,375 340,330 538,312 L 538,390 L 36,390 Z" fill="#e8a87c" fill-opacity="0.06"/>
    <text x="490" y="322" font-family="monospace" font-size="7.5" fill="#e8a87c" text-anchor="end">COMPOUNDS ↗</text>
  </g>

  <!-- ═══════════════════════════════════════════════════════════════ -->
  <!-- BOTTOM-LEFT: THE RAG UNIT (x=27, y=514, 260×252)             -->
  <!-- ═══════════════════════════════════════════════════════════════ -->
  <g transform="translate(27,514)">
    <rect width="260" height="252" fill="none" stroke="currentColor" stroke-width="1.6"/>
    <rect x="3" y="3" width="254" height="246" fill="none" stroke="currentColor" stroke-width="0.4" opacity="0.15"/>
    <line x1="0" y1="44" x2="260" y2="44" stroke="currentColor" stroke-width="0.7" opacity="0.4"/>
    <text x="14" y="20" font-family="monospace" font-size="10" fill="currentColor" letter-spacing="0.5" opacity="0.85" font-weight="bold">THE RAG UNIT</text>
    <text x="14" y="34" font-family="monospace" font-size="9" fill="currentColor" opacity="0.55">VECTOR CHUNKS</text>

    <!-- mini scattered docs -->
    <g fill="none" stroke="currentColor" stroke-width="0.9" opacity="0.7">
      <rect x="16"  y="54"  width="22" height="28"/>
      <rect x="46"  y="50"  width="22" height="28"/>
      <rect x="32"  y="90"  width="22" height="28"/>
      <rect x="62"  y="84"  width="22" height="28"/>
      <rect x="18"  y="124" width="22" height="28"/>
    </g>
    <!-- formula line -->
    <text x="100" y="72" font-family="monospace" font-size="9" fill="currentColor" opacity="0.55">f(q) = kNN(q, V)</text>
    <text x="100" y="86" font-family="monospace" font-size="8" fill="currentColor" opacity="0.38">k-nearest vector chunks</text>
    <text x="100" y="100" font-family="monospace" font-size="8" fill="currentColor" opacity="0.38">reconstructed per query</text>
    <!-- downward mini-graph -->
    <g transform="translate(100,112)">
      <line x1="0" y1="0" x2="0" y2="52" stroke="currentColor" stroke-width="0.8" opacity="0.4"/>
      <line x1="0" y1="52" x2="144" y2="52" stroke="currentColor" stroke-width="0.8" opacity="0.4"/>
      <path d="M 2,4 C 40,14 100,36 142,50" fill="none" stroke="currentColor" stroke-width="1.2" opacity="0.5"/>
    </g>

    <line x1="10" y1="178" x2="250" y2="178" stroke="currentColor" stroke-width="0.5" stroke-dasharray="2,3" opacity="0.28"/>
    <text x="14" y="193" font-family="monospace" font-size="9" fill="currentColor" opacity="0.68">Raw, isolated text fragments.</text>
    <text x="14" y="207" font-family="monospace" font-size="9" fill="currentColor" opacity="0.68">No meaningful semantic</text>
    <text x="14" y="221" font-family="monospace" font-size="9" fill="currentColor" opacity="0.68">connection between chunks.</text>
    <text x="14" y="239" font-family="monospace" font-size="9" fill="currentColor" opacity="0.42">Context lost after each query.</text>
  </g>

  <!-- ═══════════════════════════════════════════════════════════════ -->
  <!-- PERFORMANCE TABLE (x=301, y=514, 598×252)                    -->
  <!-- ═══════════════════════════════════════════════════════════════ -->
  <g transform="translate(301,514)">
    <!-- section title -->
    <text x="299" y="16" font-family="monospace" font-size="9" fill="currentColor" text-anchor="middle" opacity="0.65" letter-spacing="0.5">PERFORMANCE &amp; ECONOMICS: THE COMPILE-TIME ADVANTAGE</text>
    <!-- table outer border -->
    <rect x="0" y="22" width="598" height="222" fill="none" stroke="currentColor" stroke-width="1.4"/>
    <!-- column dividers -->
    <line x1="148" y1="22" x2="148" y2="244" stroke="currentColor" stroke-width="0.8" opacity="0.5"/>
    <line x1="373" y1="22" x2="373" y2="244" stroke="#e8a87c" stroke-width="0.8" opacity="0.6"/>
    <!-- header row -->
    <line x1="0" y1="56" x2="598" y2="56" stroke="currentColor" stroke-width="1" opacity="0.5"/>
    <!-- header fills -->
    <rect x="148" y="22" width="225" height="34" fill="currentColor" fill-opacity="0.04"/>
    <rect x="373" y="22" width="225" height="34" fill="#e8a87c" fill-opacity="0.08"/>
    <!-- header texts -->
    <text x="74" y="43" font-family="monospace" font-size="8.5" fill="currentColor" text-anchor="middle" opacity="0.55" letter-spacing="0.5">METRIC</text>
    <text x="261" y="43" font-family="monospace" font-size="8.5" fill="currentColor" text-anchor="middle" opacity="0.75" letter-spacing="0.5">TRADITIONAL RAG</text>
    <text x="486" y="43" font-family="monospace" font-size="8.5" fill="#e8a87c" text-anchor="middle" letter-spacing="0.5">TRAIL (COMPILE-TIME)</text>

    <!-- row separators -->
    <line x1="0" y1="100" x2="598" y2="100" stroke="currentColor" stroke-width="0.6" opacity="0.3"/>
    <line x1="0" y1="144" x2="598" y2="144" stroke="currentColor" stroke-width="0.6" opacity="0.3"/>
    <line x1="0" y1="188" x2="598" y2="188" stroke="currentColor" stroke-width="0.6" opacity="0.3"/>

    <!-- ROW 1: Response Speed -->
    <text x="74" y="73" font-family="monospace" font-size="8.5" fill="currentColor" text-anchor="middle" opacity="0.7">RESPONSE</text>
    <text x="74" y="86" font-family="monospace" font-size="8.5" fill="currentColor" text-anchor="middle" opacity="0.7">SPEED</text>
    <text x="261" y="70" font-family="monospace" font-size="8.5" fill="currentColor" text-anchor="middle" opacity="0.62">Slower</text>
    <text x="261" y="83" font-family="monospace" font-size="8.5" fill="currentColor" text-anchor="middle" opacity="0.62">requires real-time</text>
    <text x="261" y="96" font-family="monospace" font-size="8.5" fill="currentColor" text-anchor="middle" opacity="0.62">retrieval</text>
    <text x="486" y="70" font-family="monospace" font-size="8.5" fill="#e8a87c" text-anchor="middle" font-weight="bold">30–60% Faster</text>
    <text x="486" y="83" font-family="monospace" font-size="8.5" fill="currentColor" text-anchor="middle" opacity="0.7">reads pre-compiled</text>
    <text x="486" y="96" font-family="monospace" font-size="8.5" fill="currentColor" text-anchor="middle" opacity="0.7">Neurons</text>

    <!-- ROW 2: Compute Cost -->
    <text x="74" y="117" font-family="monospace" font-size="8.5" fill="currentColor" text-anchor="middle" opacity="0.7">COMPUTE</text>
    <text x="74" y="130" font-family="monospace" font-size="8.5" fill="currentColor" text-anchor="middle" opacity="0.7">COST</text>
    <text x="261" y="114" font-family="monospace" font-size="8.5" fill="currentColor" text-anchor="middle" opacity="0.62">High per query</text>
    <text x="261" y="127" font-family="monospace" font-size="8.5" fill="currentColor" text-anchor="middle" opacity="0.62">(5k–20k tokens)</text>
    <text x="261" y="140" font-family="monospace" font-size="8.5" fill="currentColor" text-anchor="middle" opacity="0.62">paid every time</text>
    <text x="486" y="114" font-family="monospace" font-size="8.5" fill="#e8a87c" text-anchor="middle" font-weight="bold">Low per query</text>
    <text x="486" y="127" font-family="monospace" font-size="8.5" fill="currentColor" text-anchor="middle" opacity="0.7">focused Neuron reading</text>
    <text x="486" y="140" font-family="monospace" font-size="8.5" fill="currentColor" text-anchor="middle" opacity="0.7">paid once at ingest</text>

    <!-- ROW 3: Storage Style -->
    <text x="74" y="161" font-family="monospace" font-size="8.5" fill="currentColor" text-anchor="middle" opacity="0.7">STORAGE</text>
    <text x="74" y="174" font-family="monospace" font-size="8.5" fill="currentColor" text-anchor="middle" opacity="0.7">STYLE</text>
    <text x="261" y="158" font-family="monospace" font-size="8.5" fill="currentColor" text-anchor="middle" opacity="0.62">Fragile Vector Index</text>
    <text x="261" y="171" font-family="monospace" font-size="8.5" fill="currentColor" text-anchor="middle" opacity="0.62">no semantic links</text>
    <text x="261" y="184" font-family="monospace" font-size="8.5" fill="currentColor" text-anchor="middle" opacity="0.62">degrades at scale</text>
    <text x="486" y="158" font-family="monospace" font-size="8.5" fill="#e8a87c" text-anchor="middle" font-weight="bold">Robust Markdown Graph</text>
    <text x="486" y="171" font-family="monospace" font-size="8.5" fill="currentColor" text-anchor="middle" opacity="0.7">bidirectional links</text>
    <text x="486" y="184" font-family="monospace" font-size="8.5" fill="currentColor" text-anchor="middle" opacity="0.7">expandable library</text>

    <!-- ROW 4: Knowledge State -->
    <text x="74" y="205" font-family="monospace" font-size="8.5" fill="currentColor" text-anchor="middle" opacity="0.7">KNOWLEDGE</text>
    <text x="74" y="218" font-family="monospace" font-size="8.5" fill="currentColor" text-anchor="middle" opacity="0.7">STATE</text>
    <text x="261" y="202" font-family="monospace" font-size="8.5" fill="currentColor" text-anchor="middle" opacity="0.62">Ephemeral /</text>
    <text x="261" y="215" font-family="monospace" font-size="8.5" fill="currentColor" text-anchor="middle" opacity="0.62">Fragmented</text>
    <text x="261" y="228" font-family="monospace" font-size="8.5" fill="currentColor" text-anchor="middle" opacity="0.45">no memory across queries</text>
    <text x="486" y="202" font-family="monospace" font-size="8.5" fill="#e8a87c" text-anchor="middle" font-weight="bold">Persistent /</text>
    <text x="486" y="215" font-family="monospace" font-size="8.5" fill="#e8a87c" text-anchor="middle" font-weight="bold">Cumulative</text>
    <text x="486" y="228" font-family="monospace" font-size="8.5" fill="currentColor" text-anchor="middle" opacity="0.7">every ingest compounds</text>
  </g>

  <!-- ═══════════════════════════════════════════════════════════════ -->
  <!-- BOTTOM-RIGHT: THE TRAIL UNIT (x=913, y=514, 260×252)         -->
  <!-- ═══════════════════════════════════════════════════════════════ -->
  <g transform="translate(913,514)">
    <rect width="260" height="252" fill="none" stroke="#e8a87c" stroke-width="1.6"/>
    <rect x="3" y="3" width="254" height="246" fill="none" stroke="#e8a87c" stroke-width="0.4" opacity="0.25"/>
    <line x1="0" y1="44" x2="260" y2="44" stroke="currentColor" stroke-width="0.7" opacity="0.4"/>
    <text x="14" y="20" font-family="monospace" font-size="10" fill="#e8a87c" letter-spacing="0.5" font-weight="bold">THE TRAIL UNIT</text>
    <text x="14" y="34" font-family="monospace" font-size="9" fill="currentColor" opacity="0.55">THE NEURON</text>

    <!-- central hexagon (amber, large) -->
    <polygon points="130,58 158,74 158,106 130,122 102,106 102,74" fill="none" stroke="#e8a87c" stroke-width="1.8"/>
    <polygon points="130,54 162,72 162,108 130,126 98,108 98,72" fill="none" stroke="#e8a87c" stroke-width="0.4" opacity="0.3"/>
    <circle cx="130" cy="90" r="5" fill="#e8a87c"/>
    <text x="130" y="95" font-family="monospace" font-size="8" fill="#e8a87c" text-anchor="middle" dy="5">NEURON</text>

    <!-- connected doc rects -->
    <!-- doc left-1 connected to hex left -->
    <line x1="102" y1="82" x2="72" y2="72" stroke="#e8a87c" stroke-width="1" opacity="0.6"/>
    <rect x="38" y="58" width="34" height="28" fill="none" stroke="currentColor" stroke-width="1"/>
    <line x1="43" y1="68" x2="68" y2="68" stroke="currentColor" stroke-opacity="0.3" stroke-width="0.7"/>
    <line x1="43" y1="74" x2="66" y2="74" stroke="currentColor" stroke-opacity="0.3" stroke-width="0.7"/>
    <line x1="43" y1="80" x2="67" y2="80" stroke="currentColor" stroke-opacity="0.3" stroke-width="0.7"/>
    <!-- doc left-2 connected to hex left-bottom -->
    <line x1="102" y1="100" x2="74" y2="108" stroke="#e8a87c" stroke-width="1" opacity="0.6"/>
    <rect x="38" y="96" width="34" height="28" fill="none" stroke="currentColor" stroke-width="1"/>
    <line x1="43" y1="106" x2="68" y2="106" stroke="currentColor" stroke-opacity="0.3" stroke-width="0.7"/>
    <line x1="43" y1="112" x2="66" y2="112" stroke="currentColor" stroke-opacity="0.3" stroke-width="0.7"/>
    <!-- doc right connected to hex right -->
    <line x1="158" y1="90" x2="186" y2="84" stroke="#e8a87c" stroke-width="1" opacity="0.6"/>
    <rect x="186" y="70" width="34" height="28" fill="none" stroke="currentColor" stroke-width="1"/>
    <line x1="191" y1="80" x2="216" y2="80" stroke="currentColor" stroke-opacity="0.3" stroke-width="0.7"/>
    <line x1="191" y1="86" x2="214" y2="86" stroke="currentColor" stroke-opacity="0.3" stroke-width="0.7"/>

    <!-- provenance chain icon -->
    <g transform="translate(90, 134)">
      <circle cx="10" cy="10" r="7" fill="none" stroke="currentColor" stroke-width="1" opacity="0.6"/>
      <circle cx="25" cy="10" r="7" fill="none" stroke="currentColor" stroke-width="1" opacity="0.6"/>
      <circle cx="40" cy="10" r="7" fill="none" stroke="currentColor" stroke-width="1" opacity="0.6"/>
      <line x1="17" y1="10" x2="18" y2="10" stroke="currentColor" stroke-width="1.5" opacity="0.5"/>
      <line x1="32" y1="10" x2="33" y2="10" stroke="currentColor" stroke-width="1.5" opacity="0.5"/>
      <text x="25" y="28" font-family="monospace" font-size="7" fill="currentColor" text-anchor="middle" opacity="0.55">STRUCTURAL PROVENANCE</text>
    </g>

    <line x1="10" y1="162" x2="250" y2="162" stroke="currentColor" stroke-width="0.5" stroke-dasharray="2,3" opacity="0.28"/>
    <text x="14" y="177" font-family="monospace" font-size="9" fill="currentColor" opacity="0.72">Persistent markdown</text>
    <text x="14" y="191" font-family="monospace" font-size="9" fill="currentColor" opacity="0.72">document. Bidirectional</text>
    <text x="14" y="205" font-family="monospace" font-size="9" fill="currentColor" opacity="0.72">links. Stable anchors</text>
    <text x="14" y="219" font-family="monospace" font-size="9" fill="currentColor" opacity="0.72">for every claim.</text>
    <text x="14" y="237" font-family="monospace" font-size="9" fill="currentColor" opacity="0.42">Every claim traceable to source.</text>
  </g>

  <!-- footer holes -->
  <g fill="currentColor" opacity="0.28">
    <rect x="75"  y="782" width="8" height="12"/>
    <rect x="100" y="782" width="8" height="12"/>
    <rect x="125" y="782" width="8" height="12"/>
    <rect x="150" y="782" width="8" height="12"/>
    <rect x="175" y="782" width="8" height="12"/>
    <rect x="200" y="782" width="8" height="12"/>
    <rect x="225" y="782" width="8" height="12"/>
    <rect x="250" y="782" width="8" height="12"/>
    <rect x="275" y="782" width="8" height="12"/>
    <rect x="300" y="782" width="8" height="12"/>
  </g>
  <text x="600" y="824" font-family="monospace" font-size="10" fill="currentColor" text-anchor="middle" opacity="0.42" letter-spacing="0.5">RAG searches and forgets · Trail compiles and remembers · knowledge compounds with every ingest</text>
</svg>
